<svg height="512" viewBox="0 0 45 60" width="512" xmlns="http://www.w3.org/2000/svg"><g id="Page-1" fill="none" fill-rule="evenodd"><g id="011---Spray-Can" fill="rgb(0,0,0)" fill-rule="nonzero"><path id="Shape" d="m10 54h16c1.6568542 0 3-1.3431458 3-3 0-.5522847-.4477153-1-1-1s-1 .4477153-1 1-.4477153 1-1 1h-16c-.55228475 0-1-.4477153-1-1v-15c0-.5522847.44771525-1 1-1h16c.5522847 0 1 .4477153 1 1v8c0 .5522847.4477153 1 1 1s1-.4477153 1-1v-8c0-1.6568542-1.3431458-3-3-3h-16c-1.65685425 0-3 1.3431458-3 3v15c0 1.6568542 1.34314575 3 3 3z"/><path id="Shape" d="m3 23c-1.45943726-.0027654-2.70808095 1.0474881-2.95538732 2.485822-.24730638 1.4383339.57883984 2.8453257 1.95538732 3.330178v26.184c.00330612 2.7600532 2.23994685 4.9966939 5 5h22c2.7600532-.0033061 4.9966939-2.2399468 5-5v-26.184c1.3765475-.4848523 2.2026937-1.8918441 1.9553873-3.330178s-1.49595-2.4885874-2.9553873-2.485822h-.051c-.4883702-5.2791871-4.6698129-9.4606298-9.949-9.949v-7.051c0-1.65685425-1.3431458-3-3-3h-4c-1.6568542 0-3 1.34314575-3 3v7.051c-5.27918714.4883702-9.46062978 4.6698129-9.949 9.949zm29 32c0 1.6568542-1.3431458 3-3 3h-22c-1.65685425 0-3-1.3431458-3-3v-26h28zm2-29c0 .5522847-.4477153 1-1 1h-30c-.55228475 0-1-.4477153-1-1s.44771525-1 1-1h30c.5522847 0 1 .4477153 1 1zm-19-20c0-.55228475.4477153-1 1-1h4c.5522847 0 1 .44771525 1 1v2h-1c-.5522847 0-1 .44771525-1 1s.4477153 1 1 1h1v3h-6zm-1 9h8c4.5816118.0055371 8.4300609 3.4474144 8.945 8h-25.89c.51493909-4.5525856 4.36338817-7.9944629 8.945-8z"/><circle id="Oval" cx="28" cy="9" r="1"/><circle id="Oval" cx="32" cy="7" r="1"/><circle id="Oval" cx="32" cy="11" r="1"/><circle id="Oval" cx="36" cy="5" r="1"/><circle id="Oval" cx="40" cy="3" r="1"/><circle id="Oval" cx="44" cy="1" r="1"/><circle id="Oval" cx="44" cy="5" r="1"/><circle id="Oval" cx="44" cy="9" r="1"/><circle id="Oval" cx="44" cy="13" r="1"/><circle id="Oval" cx="44" cy="17" r="1"/><circle id="Oval" cx="40" cy="7" r="1"/><circle id="Oval" cx="40" cy="11" r="1"/><circle id="Oval" cx="40" cy="15" r="1"/><circle id="Oval" cx="36" cy="9" r="1"/><circle id="Oval" cx="36" cy="13" r="1"/></g></g></svg>